<?xml version="1.0" encoding="UTF-8" standalone="no"?>
<!DOCTYPE svg PUBLIC "-//W3C//DTD SVG 1.1//EN" "http://www.w3.org/Graphics/SVG/1.1/DTD/svg11.dtd">
<svg width="100%" height="100%" viewBox="0 0 467 170" version="1.1" xmlns="http://www.w3.org/2000/svg" xmlns:xlink="http://www.w3.org/1999/xlink" xml:space="preserve" xmlns:serif="http://www.serif.com/" style="fill-rule:evenodd;clip-rule:evenodd;stroke-linejoin:round;stroke-miterlimit:2;">
    <g transform="matrix(1,0,0,1,-168.539,-10570.5)">
        <g transform="matrix(1,0,0,1,54.364,10455.2)">
            <g transform="matrix(1.84063,0,0,1.84063,-1062.81,-771.524)">
                <path d="M790.754,523.304C790.293,505.733 800.965,495.347 814,493.128C821.808,491.799 828.582,493.387 833.524,497.817C838.396,502.184 841.521,509.379 841.943,519.492C842.365,529.617 839.816,537.333 835.266,542.502C830.655,547.742 823.971,550.418 816.051,550.289C809.435,550.181 803.238,547.998 798.625,543.557C794.041,539.144 790.995,532.48 790.754,523.304ZM805.678,522.289C805.679,522.337 805.529,529.99 807.927,536.104C809.37,539.783 811.732,542.959 815.918,542.963C819.877,542.966 822.024,539.845 823.311,536.139C825.472,529.913 825.156,521.885 825.111,520.68C825.068,519.528 824.789,511.604 822.215,505.813C820.705,502.415 818.407,499.706 814.588,500.296C810.441,500.938 808.285,504.438 807.073,508.308C805.081,514.665 805.674,522.164 805.678,522.289Z" style="fill:rgb(129,129,129);"/>
            </g>
            <g transform="matrix(1.84063,0,0,1.84063,-1060.4,-771.524)">
                <path d="M697.464,515.771L697.433,515.771C699.596,513.698 703.021,512.814 704.909,512.468C704.982,512.443 705.057,512.424 705.135,512.411L718.119,510.257C718.515,510.192 718.919,510.304 719.225,510.563C719.531,510.823 719.707,511.204 719.706,511.605L719.705,511.945C719.705,512.378 719.498,512.785 719.15,513.041C719.15,513.041 717.471,514.276 717.463,514.282C717.368,514.356 717.101,514.569 716.849,514.878C716.671,515.094 716.467,515.362 716.441,515.678L716.774,518.46L718.856,529.969L723.873,510.124C724.006,509.599 724.436,509.202 724.97,509.113L728.828,508.469C729.525,508.353 730.195,508.788 730.372,509.472L735.59,529.596L738.795,513.36C738.795,513.36 739.109,511.203 739.109,511.202C739.083,511.024 738.97,510.959 738.945,510.951C738.928,510.946 738.912,510.94 738.895,510.933L736.68,510.114C736.148,509.917 735.793,509.411 735.79,508.843L735.788,508.471C735.784,507.801 736.267,507.228 736.927,507.118L746.284,505.558C746.677,505.492 747.079,505.602 747.384,505.858C747.69,506.115 747.867,506.492 747.871,506.89L747.875,507.279C747.879,507.701 747.687,508.102 747.354,508.363C744.485,510.62 744.409,513.125 743.829,515.894L737.203,547.516C737.069,548.155 736.501,548.609 735.849,548.6L730.802,548.526C730.19,548.517 729.658,548.101 729.503,547.508L724.502,528.382L719.539,547.325C719.38,547.932 718.828,548.352 718.2,548.343L713.788,548.279C713.141,548.269 712.59,547.806 712.469,547.17L707.043,518.671C706.956,518.255 706.867,517.809 706.783,517.357C706.563,516.174 705.389,515.608 704.305,515.475C703.532,515.38 702.902,515.512 702.539,515.624C702.009,515.813 701.478,516.09 701.121,516.519C699.66,518.275 701.317,521.198 703.28,520.854C705.525,520.461 704.676,518.619 705.138,518.517C705.63,518.407 708.556,521.022 706.016,524.609C703.969,527.501 696.675,527.287 695.553,521.555C695.072,519.099 696.022,517.157 697.464,515.771Z" style="fill:rgb(129,129,129);"/>
            </g>
            <g transform="matrix(1.84063,0,0,1.84063,-1062.81,-771.524)">
                <path d="M747.076,526.657C746.921,511.678 756.012,503.008 766.024,501.301C772.195,500.249 777.652,501.563 781.633,505.298C785.525,508.949 788.039,514.991 788.251,523.638C788.461,532.24 786.247,538.699 782.507,543C778.687,547.393 773.263,549.589 767.013,549.487C747.408,549.167 747.101,529.082 747.076,526.657ZM759.428,525.878C759.442,526.821 759.514,532.998 761.377,537.788C762.452,540.554 764.089,542.922 766.969,542.924C770.001,542.926 771.633,540.373 772.663,537.39C774.448,532.225 774.298,525.564 774.277,524.566C774.258,523.624 774.14,517.046 772.181,512.223C771.079,509.511 769.422,507.287 766.525,507.737C763.327,508.232 761.67,511.099 760.692,514.241C759.046,519.533 759.427,525.792 759.428,525.878Z" style="fill:rgb(129,129,129);"/>
            </g>
            <g transform="matrix(0.0473792,-0.00558747,0.00625933,0.0522674,151.466,110.543)">
                <path d="M-878.817,1895.36C-893.833,1875.32 -913.813,1848.06 -939.83,1808.89C-1000.46,1717.61 -971.714,1575.54 -942.526,1524.54C-868.415,1395.07 -774.375,1364.72 -761.598,1355.47C-873.434,1285.71 -1011.74,1096.92 -867.092,941.297C-721.19,784.322 -417.596,877.649 -404.211,1049.75C-390.75,1222.83 -558.43,1252.05 -574.495,1238.39C-589.566,1225.57 -543.079,1159.29 -591.84,1121.54C-658.125,1070.23 -792.796,1093.39 -770.763,1224.71C-762.827,1272.01 -718.472,1308.04 -683.143,1333C-671.406,1325.01 -534.166,1301.78 -404.897,1356.63C-315.189,1394.69 -254.15,1474.96 -216.281,1514.48C-134.558,1599.78 4.422,1715.06 109.512,1775C202.086,1827.8 289.809,1827.03 314.763,1817.92C333.563,1811.06 427.312,1750.2 457.59,1730.91L463.971,1719.3C437.586,1717.37 369.976,1709.72 327.439,1696.94C273.945,1680.86 187.929,1581.32 180.4,1576.59C170.446,1570.35 195.498,1560.35 197.275,1559.64C208.141,1555.3 241.95,1547.62 281.48,1543.64C317.517,1540.01 515.262,1515.35 535.238,1510.24C554.734,1505.26 658.895,1462.2 683.418,1453.01C711.65,1442.42 756.975,1450.39 776.049,1448.35C799.36,1445.84 852.452,1453.68 855.967,1465.32C856.291,1466.39 859.589,1477.32 865.431,1475.62C904.496,1459.42 978.893,1427.22 1003.29,1413.17C1016.52,1405.55 1058.57,1380.62 1084.29,1390.65C1104.82,1398.67 1100.66,1430.3 1101.87,1441.86C1103.08,1453.5 1100.87,1468.96 1099.2,1474.3C1100.38,1477.51 1109.71,1510.5 1080.76,1551.86C1049.55,1596.45 989.185,1631.07 981.587,1635.97C971.05,1642.77 972.873,1655 974.795,1659.3C980.164,1657.61 1020.37,1644.95 1042.24,1639.25C1065.13,1633.3 1080.48,1648.36 1086.41,1651.88C1095.59,1657.35 1106.88,1660.14 1109.87,1660.28C1113.32,1664.8 1121.68,1682.63 1114.28,1703.52C1089.98,1772.14 970.696,1780.64 946.879,1780.87C943.009,1782.64 907.46,1794.51 891.547,1813.54C865.327,1844.89 859.95,1875.23 852.754,1913.53C836.863,1998.11 804.206,2092.87 759.376,2161.55C737.491,2195.08 715.522,2220.44 674.96,2267.04C699.671,2290.17 756.487,2340.49 820.294,2371.48C953.877,2436.37 1119.15,2432.16 1224,2451.31C1364.73,2477 1360.62,2588.84 1360.15,2595.12C1337.3,2593.24 1132.43,2575.05 872.31,2533.61C693.973,2505.19 489.603,2439.25 460.442,2429.48C446.238,2435.44 400.69,2453.09 360.562,2464.4C310.25,2478.59 92.236,2495.52 -83.567,2400.31C-204.694,2334.7 -335.724,2166.57 -412.27,2053.17C-435.253,2027.39 -457.446,2005.56 -478.103,1987.18C-484.097,1998.61 -490.734,2010.72 -498.037,2023.76C-498.128,2024.04 -498.22,2024.31 -498.311,2024.58C-498.751,2025.91 -499.507,2027.13 -500.556,2028.25C-503.217,2032.99 -505.963,2037.85 -508.795,2042.84C-534.074,2087.43 -563.331,2111.7 -560.385,2118.26C-554.888,2130.5 -484.421,2209.24 -396.208,2282.59C-377.92,2297.8 -249.252,2368.78 -266.653,2389.82C-295.29,2424.45 -387.048,2409.13 -451.247,2399.67C-514.98,2390.28 -505.187,2362.05 -518.371,2348.26C-555.702,2309.24 -591.844,2280.57 -609.221,2267.13C-623.268,2256.27 -634.69,2247.33 -644.519,2239.56C-637.947,2248.03 -631.169,2256.56 -624.213,2265.07C-609.456,2283.11 -498.044,2374.71 -519.558,2392.41C-554.963,2421.54 -641.841,2390.88 -702.888,2370.66C-763.493,2350.58 -747.938,2324.53 -757.985,2308.75C-786.431,2264.08 -815.889,2229.78 -830.125,2213.62C-882.931,2153.69 -889.967,2142.93 -934.101,2093.57C-962.919,2061.35 -895.121,1970.65 -878.817,1895.36Z" style="fill:rgb(129,129,129);"/>
            </g>
            <g transform="matrix(0.987591,0,0,0.987591,205.447,-5885.68)">
                <path d="M97.876,6155.09C97.876,6155.09 98.828,6161.51 105.716,6162.93C98.99,6164.57 97.876,6170.77 97.876,6170.77L97.876,6155.09Z" style="fill:rgb(129,129,129);"/>
            </g>
            <g transform="matrix(1.14471,0,0,1.14471,222.908,-6854.01)">
                <path d="M97.876,6155.09C97.876,6155.09 98.828,6161.51 105.716,6162.93C98.99,6164.57 97.876,6170.77 97.876,6170.77L97.876,6155.09Z" style="fill:rgb(129,129,129);"/>
            </g>
            <g transform="matrix(1.25631,0,0,1.25631,296.943,-7549.55)">
                <path d="M97.876,6155.09C97.876,6155.09 98.828,6161.51 105.716,6162.93C98.99,6164.57 97.876,6170.77 97.876,6170.77L97.876,6155.09Z" style="fill:rgb(129,129,129);"/>
            </g>
            <g transform="matrix(-1.25631,-1.53854e-16,1.53854e-16,-1.25631,633.675,7925.75)">
                <path d="M97.876,6155.09C97.876,6155.09 98.828,6161.51 105.716,6162.93C98.99,6164.57 97.876,6170.77 97.876,6170.77L97.876,6155.09Z" style="fill:rgb(129,129,129);"/>
            </g>
            <g transform="matrix(1.84063,0,0,1.84063,-1054.82,-771.524)">
                <path d="M848.821,495.88C847.281,493.03 844.625,492.771 843.691,492.759C843.082,492.752 842.673,491.913 842.646,491.305L842.623,490.748C842.593,490.06 843.082,489.457 843.762,489.345L885.883,481.802C886.265,481.739 886.656,481.841 886.959,482.083C887.261,482.325 887.446,482.685 887.468,483.072L888.329,498.571C888.369,499.288 887.847,499.912 887.134,500L886.646,500.037C886.076,500.107 885.523,499.812 885.263,499.299C884.948,498.675 883.109,495.443 881.304,492.837C880.472,491.637 879.646,491.609 879.051,491.546C878.159,491.451 876.377,491.667 876.134,491.704L863.486,493.708L864.422,514.033L871.456,513.403C872.883,513.28 874.094,513.116 875.028,512.323C875.63,511.813 876.095,511.046 876.471,509.924L878.267,504.943C878.429,504.428 878.873,504.025 879.41,503.965L879.98,503.918C880.352,503.876 880.726,503.99 881.013,504.232C881.299,504.475 881.473,504.825 881.493,505.199L882.725,526.923C882.745,527.286 882.619,527.643 882.374,527.912C882.13,528.182 881.788,528.343 881.424,528.359L880.851,528.366C880.319,528.39 879.822,528.102 879.578,527.629L876.061,521.506C876.054,521.494 876.048,521.482 876.043,521.47C875.779,520.92 875.197,520.676 874.625,520.512C873.417,520.165 872.109,520.266 871.871,520.283L864.806,520.765L865.622,537.454C865.785,540.793 866.092,543.171 869.713,545.111C869.718,545.114 869.723,545.117 869.728,545.119L872.491,546.645C872.904,546.873 873.17,547.299 873.194,547.77L873.226,548.391C873.245,548.767 873.107,549.134 872.846,549.406C872.585,549.677 872.224,549.828 871.847,549.824L846.438,549.477C845.715,549.468 845.124,548.895 845.093,548.172L845.068,547.6C845.043,547.024 845.383,546.495 845.917,546.278C847.27,545.728 850.339,543.748 850.957,542.945C851.018,542.865 851.033,542.731 851.068,542.583C851.142,542.271 851.189,541.906 851.222,541.531C851.331,540.276 851.268,538.914 851.258,538.68L849.478,500.951C849.467,500.725 849.37,498.672 849.219,497.461C849.119,496.666 848.841,495.917 848.821,495.88Z" style="fill:rgb(129,129,129);"/>
            </g>
            <g transform="matrix(0.0351039,0.0420459,0.0482937,-0.0403202,459.317,208.375)">
                <path d="M-690.442,1232.04C-794.625,1101.44 -778.988,866.033 -541.208,807.169C-303.258,748.263 -118.72,951.503 -198.292,1108.45C-258.743,1227.68 -433.771,1222.69 -449.857,1188.35C-453.217,1181.17 -370.779,1155.12 -402.352,1078.49C-432.743,1004.73 -570.642,1002.23 -604.885,1087.01C-624.553,1135.7 -600.781,1185.64 -565.192,1218.85C-607.215,1225.17 -657.413,1228.01 -690.442,1232.04Z" style="fill:rgb(129,129,129);"/>
            </g>
            <g transform="matrix(0.803075,0,0,0.803075,-458.145,-6441.3)">
                <path d="M1199.15,8180.32L1184.17,8182.56L1186.05,8188.21L1200.45,8186.93L1199.15,8180.32Z" style="fill:rgb(129,129,129);"/>
            </g>
            <g transform="matrix(0.367308,0,0,0.367308,397.575,-2754.01)">
                <path d="M23.56,8235.19L23.56,8228.66L38.548,8228.66C40.621,8228.66 42.466,8228.25 44.083,8227.41C45.7,8226.58 46.976,8225.39 47.909,8223.85C48.842,8222.31 49.308,8220.48 49.308,8218.36C49.308,8216.24 48.842,8214.4 47.909,8212.86C46.976,8211.32 45.7,8210.14 44.083,8209.3C42.466,8208.47 40.621,8208.06 38.548,8208.06L23.56,8208.06L23.56,8201.52L39.005,8201.52C42.393,8201.52 45.427,8202.22 48.107,8203.61C50.787,8205 52.908,8206.95 54.47,8209.46C56.031,8211.98 56.812,8214.94 56.812,8218.35C56.812,8221.76 56.031,8224.72 54.47,8227.24C52.908,8229.76 50.787,8231.72 48.107,8233.11C45.427,8234.5 42.393,8235.19 39.005,8235.19L23.56,8235.19ZM18.538,8256.63L18.538,8201.52L26.022,8201.52L26.022,8256.63L18.538,8256.63Z" style="fill:rgb(129,129,129);fill-rule:nonzero;"/>
                <path d="M80.694,8257.43C76.922,8257.43 73.534,8256.57 70.53,8254.86C67.525,8253.16 65.15,8250.81 63.403,8247.83C61.656,8244.84 60.782,8241.49 60.782,8237.75C60.782,8234.03 61.639,8230.7 63.353,8227.74C65.067,8224.78 67.4,8222.44 70.351,8220.71C73.302,8218.98 76.591,8218.12 80.217,8218.12C83.698,8218.12 86.775,8218.92 89.448,8220.51C92.121,8222.11 94.222,8224.3 95.751,8227.09C97.28,8229.89 98.044,8233.08 98.044,8236.66C98.044,8237.19 98.011,8237.76 97.945,8238.37C97.878,8238.98 97.773,8239.67 97.627,8240.43L65.805,8240.43L65.805,8234.5L93.835,8234.5L91.215,8236.78C91.188,8234.25 90.732,8232.09 89.845,8230.31C88.958,8228.52 87.695,8227.14 86.054,8226.17C84.412,8225.2 82.421,8224.71 80.078,8224.71C77.617,8224.71 75.469,8225.24 73.636,8226.31C71.803,8227.37 70.381,8228.86 69.368,8230.76C68.356,8232.67 67.85,8234.93 67.85,8237.53C67.85,8240.17 68.382,8242.48 69.448,8244.46C70.513,8246.45 72.018,8247.99 73.964,8249.08C75.909,8250.17 78.159,8250.72 80.713,8250.72C82.818,8250.72 84.763,8250.34 86.55,8249.59C88.336,8248.83 89.852,8247.72 91.096,8246.25L95.682,8250.9C93.882,8253.01 91.675,8254.63 89.061,8255.75C86.447,8256.87 83.658,8257.43 80.694,8257.43Z" style="fill:rgb(129,129,129);fill-rule:nonzero;"/>
                <path d="M110.471,8256.63L110.471,8203.11L117.638,8203.11L117.638,8256.63L110.471,8256.63ZM101.2,8225.41L101.2,8218.91L126.888,8218.91L126.888,8225.41L101.2,8225.41Z" style="fill:rgb(129,129,129);fill-rule:nonzero;"/>
                <path d="M151.604,8256.63L151.604,8201.52L156.845,8201.52L180.19,8239.9L176.656,8239.9L200.002,8201.52L205.243,8201.52L205.243,8256.63L197.759,8256.63L197.759,8214.63L199.466,8215.08L181.044,8245.34L175.803,8245.34L157.381,8215.08L159.088,8214.63L159.088,8256.63L151.604,8256.63Z" style="fill:rgb(129,129,129);fill-rule:nonzero;"/>
                <path d="M233.035,8257.43C229.555,8257.43 226.418,8256.56 223.626,8254.84C220.833,8253.11 218.626,8250.77 217.005,8247.81C215.384,8244.85 214.573,8241.53 214.573,8237.85C214.573,8234.13 215.384,8230.79 217.005,8227.83C218.626,8224.86 220.83,8222.5 223.616,8220.75C226.401,8219 229.528,8218.12 232.996,8218.12C235.881,8218.12 238.448,8218.72 240.698,8219.91C242.948,8221.1 244.758,8222.75 246.127,8224.85C247.497,8226.95 248.255,8229.37 248.4,8232.09L248.4,8243.43C248.242,8246.16 247.487,8248.58 246.137,8250.69C244.787,8252.8 242.984,8254.45 240.728,8255.64C238.471,8256.83 235.907,8257.43 233.035,8257.43ZM234.187,8250.66C237.747,8250.66 240.609,8249.46 242.772,8247.07C244.936,8244.68 246.018,8241.59 246.018,8237.79C246.018,8235.24 245.525,8232.99 244.539,8231.05C243.553,8229.11 242.17,8227.6 240.39,8226.52C238.61,8225.43 236.529,8224.89 234.147,8224.89C231.765,8224.89 229.66,8225.44 227.834,8226.54C226.008,8227.64 224.568,8229.15 223.516,8231.09C222.464,8233.03 221.938,8235.26 221.938,8237.77C221.938,8240.29 222.464,8242.51 223.516,8244.45C224.568,8246.39 226.014,8247.91 227.854,8249.01C229.694,8250.11 231.804,8250.66 234.187,8250.66ZM245.581,8256.63L245.581,8246.51L246.892,8237.28L245.581,8228.17L245.581,8218.91L252.748,8218.91L252.748,8256.63L245.581,8256.63Z" style="fill:rgb(129,129,129);fill-rule:nonzero;"/>
                <path d="M263.19,8256.63L263.19,8218.91L270.356,8218.91L270.356,8256.63L263.19,8256.63ZM270.356,8235.15L267.676,8233.9C267.676,8229.12 268.788,8225.3 271.011,8222.43C273.235,8219.56 276.438,8218.12 280.62,8218.12C282.499,8218.12 284.209,8218.46 285.751,8219.13C287.293,8219.81 288.726,8220.89 290.049,8222.39L285.344,8227.25C284.55,8226.39 283.674,8225.78 282.714,8225.41C281.755,8225.03 280.646,8224.85 279.389,8224.85C276.755,8224.85 274.591,8225.7 272.897,8227.4C271.203,8229.1 270.356,8231.68 270.356,8235.15Z" style="fill:rgb(129,129,129);fill-rule:nonzero;"/>
                <path d="M319.211,8256.63L301.603,8237.34L319.013,8218.91L327.668,8218.91L308.253,8239.22L308.551,8235.13L328.442,8256.63L319.211,8256.63ZM295.052,8256.63L295.052,8199.94L302.218,8199.94L302.218,8256.63L295.052,8256.63Z" style="fill:rgb(129,129,129);fill-rule:nonzero;"/>
                <path d="M349.882,8257.43C346.11,8257.43 342.722,8256.57 339.718,8254.86C336.714,8253.16 334.338,8250.81 332.591,8247.83C330.844,8244.84 329.971,8241.49 329.971,8237.75C329.971,8234.03 330.828,8230.7 332.542,8227.74C334.256,8224.78 336.588,8222.44 339.539,8220.71C342.491,8218.98 345.779,8218.12 349.406,8218.12C352.886,8218.12 355.963,8218.92 358.637,8220.51C361.31,8222.11 363.411,8224.3 364.94,8227.09C366.468,8229.89 367.232,8233.08 367.232,8236.66C367.232,8237.19 367.199,8237.76 367.133,8238.37C367.067,8238.98 366.961,8239.67 366.816,8240.43L334.993,8240.43L334.993,8234.5L363.024,8234.5L360.403,8236.78C360.377,8234.25 359.92,8232.09 359.034,8230.31C358.147,8228.52 356.883,8227.14 355.242,8226.17C353.601,8225.2 351.609,8224.71 349.267,8224.71C346.805,8224.71 344.658,8225.24 342.825,8226.31C340.992,8227.37 339.569,8228.86 338.557,8230.76C337.544,8232.67 337.038,8234.93 337.038,8237.53C337.038,8240.17 337.571,8242.48 338.636,8244.46C339.702,8246.45 341.207,8247.99 343.152,8249.08C345.098,8250.17 347.348,8250.72 349.902,8250.72C352.006,8250.72 353.952,8250.34 355.738,8249.59C357.525,8248.83 359.04,8247.72 360.284,8246.25L364.87,8250.9C363.07,8253.01 360.863,8254.63 358.25,8255.75C355.636,8256.87 352.847,8257.43 349.882,8257.43Z" style="fill:rgb(129,129,129);fill-rule:nonzero;"/>
                <path d="M379.66,8256.63L379.66,8203.11L386.826,8203.11L386.826,8256.63L379.66,8256.63ZM370.389,8225.41L370.389,8218.91L396.077,8218.91L396.077,8225.41L370.389,8225.41Z" style="fill:rgb(129,129,129);fill-rule:nonzero;"/>
                <path d="M403.104,8256.63L403.104,8218.91L410.271,8218.91L410.271,8256.63L403.104,8256.63ZM406.678,8211.39C405.394,8211.39 404.325,8210.95 403.472,8210.06C402.618,8209.17 402.191,8208.09 402.191,8206.8C402.191,8205.51 402.618,8204.42 403.472,8203.55C404.325,8202.67 405.394,8202.24 406.678,8202.24C408.014,8202.24 409.103,8202.67 409.943,8203.55C410.784,8204.42 411.204,8205.51 411.204,8206.8C411.204,8208.09 410.784,8209.17 409.943,8210.06C409.103,8210.95 408.014,8211.39 406.678,8211.39Z" style="fill:rgb(129,129,129);fill-rule:nonzero;"/>
                <path d="M447.453,8256.63L447.453,8234.68C447.453,8231.78 446.563,8229.41 444.783,8227.57C443.003,8225.73 440.689,8224.81 437.84,8224.81C435.901,8224.81 434.19,8225.23 432.706,8226.07C431.222,8226.91 430.06,8228.07 429.219,8229.55C428.379,8231.04 427.959,8232.74 427.959,8234.66L424.981,8232.99C424.981,8230.12 425.626,8227.57 426.916,8225.34C428.207,8223.11 429.981,8221.35 432.24,8220.06C434.499,8218.76 437.057,8218.12 439.913,8218.12C442.769,8218.12 445.306,8218.83 447.523,8220.25C449.739,8221.68 451.476,8223.54 452.734,8225.85C453.991,8228.16 454.619,8230.63 454.619,8233.25L454.619,8256.63L447.453,8256.63ZM420.792,8256.63L420.792,8218.91L427.959,8218.91L427.959,8256.63L420.792,8256.63Z" style="fill:rgb(129,129,129);fill-rule:nonzero;"/>
                <path d="M479.93,8273.23C476.039,8273.23 472.605,8272.52 469.627,8271.09C466.65,8269.67 464.248,8267.66 462.421,8265.05L467.086,8260.38C468.595,8262.33 470.408,8263.82 472.526,8264.85C474.643,8265.88 477.158,8266.4 480.069,8266.4C483.921,8266.4 486.974,8265.39 489.231,8263.36C491.487,8261.34 492.616,8258.58 492.616,8255.1L492.616,8245.75L493.926,8237.3L492.616,8228.84L492.616,8218.91L499.782,8218.91L499.782,8255.1C499.782,8258.73 498.948,8261.9 497.281,8264.6C495.613,8267.31 493.287,8269.42 490.303,8270.94C487.318,8272.47 483.861,8273.23 479.93,8273.23ZM479.93,8256.04C476.503,8256.04 473.419,8255.21 470.679,8253.56C467.94,8251.9 465.783,8249.63 464.208,8246.75C462.633,8243.86 461.845,8240.62 461.845,8237.02C461.845,8233.43 462.63,8230.22 464.198,8227.37C465.766,8224.52 467.92,8222.27 470.66,8220.61C473.399,8218.95 476.476,8218.12 479.891,8218.12C482.855,8218.12 485.479,8218.71 487.762,8219.88C490.045,8221.05 491.858,8222.68 493.201,8224.76C494.544,8226.84 495.289,8229.29 495.434,8232.09L495.434,8242.08C495.276,8244.83 494.515,8247.26 493.152,8249.37C491.788,8251.47 489.972,8253.11 487.702,8254.28C485.433,8255.45 482.842,8256.04 479.93,8256.04ZM481.32,8249.27C483.662,8249.27 485.717,8248.76 487.484,8247.75C489.251,8246.74 490.62,8245.32 491.593,8243.49C492.566,8241.66 493.052,8239.53 493.052,8237.08C493.052,8234.64 492.563,8232.52 491.583,8230.7C490.604,8228.88 489.231,8227.45 487.464,8226.43C485.697,8225.4 483.636,8224.89 481.28,8224.89C478.911,8224.89 476.817,8225.4 474.997,8226.43C473.177,8227.45 471.758,8228.88 470.739,8230.7C469.72,8232.52 469.21,8234.64 469.21,8237.06C469.21,8239.44 469.723,8241.56 470.749,8243.41C471.775,8245.26 473.197,8246.7 475.017,8247.73C476.837,8248.75 478.938,8249.27 481.32,8249.27Z" style="fill:rgb(129,129,129);fill-rule:nonzero;"/>
            </g>
        </g>
    </g>
</svg>
